HIERARCHY
ROOT hip
{
  OFFSET 0.00112043 5.09927 -9.65472
  CHANNELS 6 Xposition Yposition Zposition Zrotation Xrotation Yrotation
  JOINT abdomen
  {
    OFFSET 0 -1.186 -1.5018
    CHANNELS 3 Zrotation Xrotation Yrotation
    JOINT abdomen2
    {
      OFFSET 0 9.964 0.2134
      CHANNELS 3 Zrotation Xrotation Yrotation
      JOINT chest
      {
        OFFSET 0 13.134 -3.2573
        CHANNELS 3 Zrotation Xrotation Yrotation
        JOINT neck
        {
          OFFSET 0 20.686 -1.6905
          CHANNELS 3 Zrotation Xrotation Yrotation
          JOINT head
          {
            OFFSET 0 7.238 -0.1237
            CHANNELS 3 Zrotation Xrotation Yrotation
            End Site
            {
              OFFSET 0 0 0
            }
          }
        }
        JOINT lCollar
        {
          OFFSET 1.7069 20.075 5.0056
          CHANNELS 3 Zrotation Xrotation Yrotation
          JOINT lShldr
          {
            OFFSET 13.6458 -0.047 -4.849
            CHANNELS 3 Zrotation Xrotation Yrotation
            JOINT lForeArm
            {
              OFFSET 28.3255 -0.9759 2.2888
              CHANNELS 3 Zrotation Xrotation Yrotation
              JOINT lHand
              {
                OFFSET 22.1583 -0.53 10.8316
                CHANNELS 3 Zrotation Xrotation Yrotation
                JOINT lThumb1
                {
                  OFFSET 0.786 0.112 2.5817
                  CHANNELS 3 Zrotation Xrotation Yrotation
                  JOINT lThumb2
                  {
                    OFFSET 0.3601 -0.878 4.2331
                    CHANNELS 3 Zrotation Xrotation Yrotation
                    JOINT lThumb2_End
                    {
                      OFFSET 1.8127 -1.216 2.2227
                      CHANNELS 3 Zrotation Xrotation Yrotation
                      End Site
                      {
                        OFFSET 0.0181 -0.0122 0.0222
                      }
                    }
                  }
                }
                JOINT lCarpal1
                {
                  OFFSET 0.9571 1.114 1.7695
                  CHANNELS 3 Zrotation Xrotation Yrotation
                  JOINT lIndex1
                  {
                    OFFSET 4.1246 0.487 4.1451
                    CHANNELS 3 Zrotation Xrotation Yrotation
                    JOINT lIndex2
                    {
                      OFFSET 3.4052 -1.454 2.7682
                      CHANNELS 3 Zrotation Xrotation Yrotation
                      JOINT lIndex2_End
                      {
                        OFFSET 1.4531 -1.795 1.2713
                        CHANNELS 3 Zrotation Xrotation Yrotation
                        End Site
                        {
                          OFFSET 0.0145 -0.0179 0.0127
                        }
                      }
                    }
                  }
                  JOINT lMid1
                  {
                    OFFSET 5.6954 0.21 2.1184
                    CHANNELS 3 Zrotation Xrotation Yrotation
                    JOINT lMid2
                    {
                      OFFSET 3.9766 -1.54 2.3863
                      CHANNELS 3 Zrotation Xrotation Yrotation
                      JOINT lMid2_End
                      {
                        OFFSET 1.4042 -1.926 1.125
                        CHANNELS 3 Zrotation Xrotation Yrotation
                        End Site
                        {
                          OFFSET 0.014 -0.0193 0.0113
                        }
                      }
                    }
                  }
                }
                JOINT lCarpal2
                {
                  OFFSET 2.0956 0.66 -0.3894
                  CHANNELS 3 Zrotation Xrotation Yrotation
                  JOINT lRing1
                  {
                    OFFSET 5.0395 -0.09 2.4971
                    CHANNELS 3 Zrotation Xrotation Yrotation
                    JOINT lRing2
                    {
                      OFFSET 3.7921 -1.552 1.4806
                      CHANNELS 3 Zrotation Xrotation Yrotation
                      JOINT lRing2_End
                      {
                        OFFSET 1.4655 -1.808 0.9609
                        CHANNELS 3 Zrotation Xrotation Yrotation
                        End Site
                        {
                          OFFSET 0.0147 -0.0181 0.0096
                        }
                      }
                    }
                  }
                  JOINT lPinky1
                  {
                    OFFSET 4.9141 -1.269 0.3591
                    CHANNELS 3 Zrotation Xrotation Yrotation
                    JOINT lPinky2
                    {
                      OFFSET 3.1477 -1.685 0.8462
                      CHANNELS 3 Zrotation Xrotation Yrotation
                      JOINT lPinky2_End
                      {
                        OFFSET 0.8055 -1.585 0.7955
                        CHANNELS 3 Zrotation Xrotation Yrotation
                        End Site
                        {
                          OFFSET 0.0081 -0.0158 0.008
                        }
                      }
                    }
                  }
                }
              }
            }
          }
        }
        JOINT rCollar
        {
          OFFSET -1.7069 20.075 5.0056
          CHANNELS 3 Zrotation Xrotation Yrotation
          JOINT rShldr
          {
            OFFSET -13.6458 -0.047 -4.849
            CHANNELS 3 Zrotation Xrotation Yrotation
            JOINT rForeArm
            {
              OFFSET -28.3255 -0.9759 2.2888
              CHANNELS 3 Zrotation Xrotation Yrotation
              JOINT rHand
              {
                OFFSET -22.1583 -0.53 10.8316
                CHANNELS 3 Zrotation Xrotation Yrotation
                JOINT rThumb1
                {
                  OFFSET -0.786 0.112 2.5817
                  CHANNELS 3 Zrotation Xrotation Yrotation
                  JOINT rThumb2
                  {
                    OFFSET -0.3601 -0.878 4.2331
                    CHANNELS 3 Zrotation Xrotation Yrotation
                    JOINT rThumb2_End
                    {
                      OFFSET -1.8127 -1.216 2.2227
                      CHANNELS 3 Zrotation Xrotation Yrotation
                      End Site
                      {
                        OFFSET -0.0181 -0.0122 0.0222
                      }
                    }
                  }
                }
                JOINT rCarpal1
                {
                  OFFSET -0.9571 1.114 1.7695
                  CHANNELS 3 Zrotation Xrotation Yrotation
                  JOINT rIndex1
                  {
                    OFFSET -4.1246 0.487 4.1451
                    CHANNELS 3 Zrotation Xrotation Yrotation
                    JOINT rIndex2
                    {
                      OFFSET -3.4052 -1.454 2.7682
                      CHANNELS 3 Zrotation Xrotation Yrotation
                      JOINT rIndex2_End
                      {
                        OFFSET -1.4531 -1.795 1.2713
                        CHANNELS 3 Zrotation Xrotation Yrotation
                        End Site
                        {
                          OFFSET -0.0145 -0.018 0.0127
                        }
                      }
                    }
                  }
                  JOINT rMid1
                  {
                    OFFSET -5.6954 0.21 2.1184
                    CHANNELS 3 Zrotation Xrotation Yrotation
                    JOINT rMid2
                    {
                      OFFSET -3.9766 -1.54 2.3863
                      CHANNELS 3 Zrotation Xrotation Yrotation
                      JOINT rMid2_End
                      {
                        OFFSET -1.4042 -1.926 1.125
                        CHANNELS 3 Zrotation Xrotation Yrotation
                        End Site
                        {
                          OFFSET -0.014 -0.0193 0.0113
                        }
                      }
                    }
                  }
                }
                JOINT rCarpal2
                {
                  OFFSET -2.0956 0.66 -0.3894
                  CHANNELS 3 Zrotation Xrotation Yrotation
                  JOINT rRing1
                  {
                    OFFSET -5.0395 -0.09 2.4971
                    CHANNELS 3 Zrotation Xrotation Yrotation
                    JOINT rRing2
                    {
                      OFFSET -3.7921 -1.552 1.4806
                      CHANNELS 3 Zrotation Xrotation Yrotation
                      JOINT rRing2_End
                      {
                        OFFSET -1.4655 -1.808 0.9609
                        CHANNELS 3 Zrotation Xrotation Yrotation
                        End Site
                        {
                          OFFSET -0.0147 -0.0181 0.0096
                        }
                      }
                    }
                  }
                  JOINT rPinky1
                  {
                    OFFSET -4.9141 -1.269 0.3592
                    CHANNELS 3 Zrotation Xrotation Yrotation
                    JOINT rPinky2
                    {
                      OFFSET -3.1477 -1.685 0.8462
                      CHANNELS 3 Zrotation Xrotation Yrotation
                      JOINT rPinky2_End
                      {
                        OFFSET -0.8055 -1.585 0.7955
                        CHANNELS 3 Zrotation Xrotation Yrotation
                        End Site
                        {
                          OFFSET -0.0081 -0.0158 0.008
                        }
                      }
                    }
                  }
                }
              }
            }
          }
        }
      }
    }
  }
  JOINT lThigh
  {
    OFFSET 8.367 -8.2066 0.5982
    CHANNELS 3 Zrotation Xrotation Yrotation
    JOINT lShin
    {
      OFFSET 2.1923 -43.463 -0.4932
      CHANNELS 3 Zrotation Xrotation Yrotation
      JOINT lFoot
      {
        OFFSET 0.7333 -45.8593 -2.6451
        CHANNELS 3 Zrotation Xrotation Yrotation
        End Site
        {
          OFFSET 2.6618 -4.2699 12.3931
        }
      }
    }
  }
  JOINT rThigh
  {
    OFFSET -8.367 -8.2066 0.5982
    CHANNELS 3 Zrotation Xrotation Yrotation
    JOINT rShin
    {
      OFFSET -2.1923 -43.463 -0.4931
      CHANNELS 3 Zrotation Xrotation Yrotation
      JOINT rFoot
      {
        OFFSET -0.7333 -45.8593 -2.6451
        CHANNELS 3 Zrotation Xrotation Yrotation
        End Site
        {
          OFFSET -2.6618 -4.2699 12.3931
        }
      }
    }
  }
}
MOTION
Frames:	6
Frame Time:	0.0333333
0 91.7903 2.51682 0 0 -0 0 0 -0 0 0 -0 0 0 -0 0 0 -0 0 0 -0 0 0 -0 1.66051 0.0835086 5.75766 -0.0175111 0.895433 15.7816 7.95139e-016 -1.98785e-016 -0 5.46658e-016 -3.97569e-016 -0 5.96354e-016 0 -0 3.97569e-016 1.98785e-016 9.54166e-015 1.49089e-016 -3.97569e-016 -0 6.4605e-016 0 3.18055e-015 5.96354e-016 0 3.18055e-015 8.94531e-016 -1.98785e-016 6.36111e-015 6.4605e-016 0 3.18055e-015 5.96354e-016 0 3.18055e-015 8.94531e-016 -1.98785e-016 6.36111e-015 1.49089e-016 -3.97569e-016 -0 6.4605e-016 0 3.18055e-015 5.96354e-016 0 3.18055e-015 8.94531e-016 -1.98785e-016 6.36111e-015 6.4605e-016 0 3.18055e-015 5.96354e-016 0 3.18055e-015 8.94531e-016 -1.98785e-016 6.36111e-015 0 0 -0 -1.4496 0.0636048 -5.0245 -1.74811 1.20616 -16.8394 -1.19271e-015 1.98785e-016 -3.18055e-015 -3.97569e-016 1.98785e-016 -3.18055e-015 -2.98177e-016 1.98785e-016 -3.18055e-015 -2.98177e-016 3.97569e-016 -0 4.96962e-016 0 -6.36111e-015 -9.93923e-017 3.97569e-016 -0 -8.94531e-016 5.96354e-016 -0 -3.97569e-016 3.97569e-016 -0 -9.93923e-017 3.97569e-016 -0 -8.94531e-016 5.96354e-016 -0 -3.97569e-016 3.97569e-016 -0 4.96962e-016 0 -6.36111e-015 -9.93923e-017 3.97569e-016 -0 -8.94531e-016 5.96354e-016 -0 -3.97569e-016 3.97569e-016 -0 -9.93923e-017 3.97569e-016 -0 -8.94531e-016 5.96354e-016 -0 -3.97569e-016 3.97569e-016 -0 -4.66111 -0.998717 0.12318 0.00986924 1.54847 0.176523 4.65186 -0.572283 -0.254274 4.66111 -0.998765 -0.123176 -0.00986867 1.54869 -0.176537 -4.65186 -0.572453 0.25427 
1.28388 56.8125 4.15266 0 20.0836 -0 0.194658 -2.53437 -0.17359 0.382182 -5.06931 -0.339049 0.382182 -5.06931 -0.339049 -1.41745e-006 -0.275523 -4.54444e-006 -4.79647e-008 -0.405558 -2.98083e-007 -7.75846 7.60867 -23.0562 -33.8408 -2.9789 24.7857 -23.3299 33.1683 -41.5961 22.7714 -24.3292 -0.0360667 -3.97569e-015 -7.95139e-015 -0 4.20624e-007 -1.3603e-006 -9.42477e-007 1.02735e-005 -2.61734e-006 6.43213e-007 -6.36111e-015 -9.54166e-015 -3.18055e-015 7.95139e-015 0 9.54166e-015 4.20624e-007 -1.3603e-006 -9.42477e-007 1.02735e-005 -2.61734e-006 6.43213e-007 7.95139e-015 0 9.54166e-015 4.20624e-007 -1.3603e-006 -9.42477e-007 1.02735e-005 -2.61734e-006 6.43213e-007 -6.36111e-015 -9.54166e-015 -3.18055e-015 7.95139e-015 0 9.54166e-015 4.20624e-007 -1.3603e-006 -9.42477e-007 1.02735e-005 -2.61734e-006 6.43213e-007 7.95139e-015 0 9.54166e-015 4.20624e-007 -1.3603e-006 -9.42477e-007 1.02735e-005 -2.61734e-006 6.43213e-007 7.76803 7.60701 23.0593 34.0478 -3.07184 -24.0546 22.2595 31.7349 41.136 -22.7839 -24.4692 -0.627445 -3.97569e-015 -3.18055e-015 -3.18055e-015 7.95139e-016 1.59028e-015 -0 3.18055e-015 -4.77083e-015 3.18055e-015 -3.97569e-015 -4.77083e-015 -3.18055e-015 -7.95139e-016 0 3.18055e-015 3.18055e-015 0 3.18055e-015 -7.95139e-016 0 -3.18055e-015 -7.95139e-016 0 3.18055e-015 3.18055e-015 0 3.18055e-015 -7.95139e-016 0 -3.18055e-015 -3.97569e-015 -4.77083e-015 -3.18055e-015 -7.95139e-016 0 3.18055e-015 3.18055e-015 0 3.18055e-015 -7.95139e-016 0 -3.18055e-015 -7.95139e-016 0 3.18055e-015 3.18055e-015 0 3.18055e-015 -7.95139e-016 0 -3.18055e-015 4.16258 -29.0636 13.644 6.4852 73.3502 -3.81694 -8.52765 43.0388 17.7208 -4.12274 -28.7177 -13.6369 -6.49538 73.2524 3.84575 8.65299 43.1397 -17.758 
1.86095 39.9395 3.54417 0 28.6955 -0 0.287767 -3.50796 -0.250501 0.561716 -7.01711 -0.484675 0.561716 -7.01711 -0.484675 -1.79357e-005 -0.439834 5.70797e-006 -9.4338e-008 -0.805256 3.28546e-007 -9.18185 9.72848 -33.8103 -49.1937 -4.07337 33.4341 -24.7404 24.2784 -65.2443 33.8032 -34.7825 0.624052 9.14409e-015 3.97569e-015 -6.36111e-015 7.95139e-015 3.18055e-015 -9.54166e-015 9.14409e-015 3.97569e-015 -6.36111e-015 3.97569e-016 -7.95139e-016 3.18055e-015 9.93923e-015 4.77083e-015 1.59028e-014 7.15625e-015 3.18055e-015 -1.27222e-014 1.07344e-014 5.56597e-015 -6.36111e-015 9.93923e-015 4.77083e-015 1.59028e-014 7.15625e-015 3.18055e-015 -1.27222e-014 1.07344e-014 5.56597e-015 -6.36111e-015 3.97569e-016 -7.95139e-016 3.18055e-015 9.93923e-015 4.77083e-015 1.59028e-014 7.15625e-015 3.18055e-015 -1.27222e-014 1.07344e-014 5.56597e-015 -6.36111e-015 9.93923e-015 4.77083e-015 1.59028e-014 7.15625e-015 3.18055e-015 -1.27222e-014 1.07344e-014 5.56597e-015 -6.36111e-015 9.13665 9.73015 33.7873 49.3133 -4.17412 -32.6561 24.2209 22.4234 64.3702 -33.7931 -34.9782 -1.59066 -8.82781e-032 -1.59028e-015 -3.18055e-015 7.95139e-016 -1.59028e-015 -6.36111e-015 7.95139e-016 -3.18055e-015 3.18055e-015 -7.95139e-016 0 -0 2.38542e-015 1.59028e-015 3.18055e-015 7.95139e-016 0 -9.54166e-015 2.38542e-015 1.59028e-015 3.18055e-015 2.38542e-015 1.59028e-015 3.18055e-015 7.95139e-016 0 -9.54166e-015 2.38542e-015 1.59028e-015 3.18055e-015 -7.95139e-016 0 -0 2.38542e-015 1.59028e-015 3.18055e-015 7.95139e-016 0 -9.54166e-015 2.38542e-015 1.59028e-015 3.18055e-015 2.38542e-015 1.59028e-015 3.18055e-015 7.95139e-016 0 -9.54166e-015 2.38542e-015 1.59028e-015 3.18055e-015 13.0253 -40.6101 23.2959 168.82 73.6686 -163.385 -30.3926 59.0928 38.585 -12.8641 -40.1131 -23.1945 -168.593 73.8064 163.176 30.6929 59.2054 -38.7508 
1.73272 43.7725 4.00086 0 25.8356 -0 0.263825 -2.92215 -0.236413 0.516567 -5.84534 -0.460231 0.516566 -5.84534 -0.46023 -2.13302e-005 -0.492894 1.02094e-006 -2.01878e-008 -1.19922 2.46799e-007 -8.63146 8.70163 -31.6605 -45.9899 -3.90504 31.6212 -23.8394 27.5444 -61.3113 31.4534 -32.6701 0.181945 3.97287e-007 2.0061e-007 -2.03383e-007 1.3418e-015 -2.23633e-016 1.27222e-014 -1.59028e-015 3.23025e-016 1.59028e-014 -7.57867e-016 5.46658e-016 -0 3.97287e-007 2.0061e-007 -2.03383e-007 -2.48481e-017 0 9.54166e-015 -5.71506e-016 -5.46658e-016 1.27222e-014 3.97287e-007 2.0061e-007 -2.03383e-007 -2.48481e-017 0 9.54166e-015 -5.71506e-016 -5.46658e-016 1.27222e-014 -7.57867e-016 5.46658e-016 -0 3.97287e-007 2.0061e-007 -2.03383e-007 -2.48481e-017 0 9.54166e-015 -5.71506e-016 -5.46658e-016 1.27222e-014 3.97287e-007 2.0061e-007 -2.03383e-007 -2.48481e-017 0 9.54166e-015 -5.71506e-016 -5.46658e-016 1.27222e-014 8.46552 8.71034 31.5823 45.9551 -3.95438 -30.7422 23.2135 25.5917 60.4318 -31.1253 -32.8725 -0.964388 0 0 -6.36111e-015 1.19271e-015 -1.59028e-015 -6.36111e-015 3.97569e-016 -7.95139e-016 -6.36111e-015 1.76556e-031 1.59028e-015 -6.36111e-015 7.95139e-016 0 6.36111e-015 -1.19271e-015 0 -3.18055e-015 0 0 -9.54166e-015 7.95139e-016 0 6.36111e-015 -1.19271e-015 0 -3.18055e-015 0 0 -9.54166e-015 1.76556e-031 1.59028e-015 -6.36111e-015 7.95139e-016 0 6.36111e-015 -1.19271e-015 0 -3.18055e-015 0 0 -9.54166e-015 7.95139e-016 0 6.36111e-015 -1.19271e-015 0 -3.18055e-015 0 0 -9.54166e-015 10.4134 -36.7065 20.37 161.102 81.1833 -156.461 -23.7192 55.9432 32.2391 -10.2992 -36.2427 -20.3089 -160.61 81.3063 155.99 23.9633 56.0585 -32.3596 
1.73275 43.8268 4.17698 0 25.0605 -0 0.261434 -2.61944 -0.238662 0.512736 -5.23992 -0.466075 0.512736 -5.23991 -0.466075 -1.22871e-006 -0.56637 -4.63012e-006 -2.15767e-008 -1.59483 -3.8373e-007 -8.37546 8.18045 -31.8645 -46.1316 -3.94575 31.7121 -23.86 27.675 -61.371 31.5905 -32.8061 -0.0142411 -7.95139e-016 6.4605e-016 -0 1.2424e-015 6.4605e-016 -0 -7.45443e-016 2.73329e-016 3.18055e-015 -7.95139e-016 2.98177e-016 -0 -5.2181e-016 -9.93923e-017 6.36111e-015 -1.2424e-016 2.23633e-016 -0 5.2181e-016 9.44227e-016 6.36111e-015 -5.2181e-016 -9.93923e-017 6.36111e-015 -1.2424e-016 2.23633e-016 -0 5.2181e-016 9.44227e-016 6.36111e-015 -7.95139e-016 2.98177e-016 -0 -5.2181e-016 -9.93923e-017 6.36111e-015 -1.2424e-016 2.23633e-016 -0 5.2181e-016 9.44227e-016 6.36111e-015 -5.2181e-016 -9.93923e-017 6.36111e-015 -1.2424e-016 2.23633e-016 -0 5.2181e-016 9.44227e-016 6.36111e-015 8.10043 8.19565 31.7352 45.9551 -3.95438 -30.7422 23.2135 25.5917 60.4318 -31.0022 -33.0227 -0.674011 0 0 -0 -3.97569e-016 0 3.18055e-015 -7.95139e-016 -7.95139e-016 9.54166e-015 7.95139e-016 -7.95139e-016 -0 3.97569e-016 -7.95139e-016 9.54166e-015 -7.95139e-016 -3.97569e-016 3.18055e-015 -3.97569e-016 -7.95139e-016 3.18055e-015 3.97569e-016 -7.95139e-016 9.54166e-015 -7.95139e-016 -3.97569e-016 3.18055e-015 -3.97569e-016 -7.95139e-016 3.18055e-015 7.95139e-016 -7.95139e-016 -0 3.97569e-016 -7.95139e-016 9.54166e-015 -7.95139e-016 -3.97569e-016 3.18055e-015 -3.97569e-016 -7.95139e-016 3.18055e-015 3.97569e-016 -7.95139e-016 9.54166e-015 -7.95139e-016 -3.97569e-016 3.18055e-015 -3.97569e-016 -7.95139e-016 3.18055e-015 10.2113 -35.5854 20.0659 160.513 81.5346 -155.898 -23.689 55.9189 32.1994 -10.1034 -35.1226 -20.0106 -159.984 81.6601 155.391 23.9326 56.0339 -32.3192 
1.73279 43.8803 4.3524 0 24.2845 -0 0.259066 -2.31643 -0.240881 0.508998 -4.63392 -0.471847 0.508998 -4.63392 -0.471847 -2.00802e-005 -0.639522 1.14505e-006 2.0581e-007 -1.99091 1.63208e-007 -8.12152 7.65816 -32.066 -46.2733 -3.98669 31.8029 -23.8805 27.8056 -61.4308 31.7274 -32.9426 -0.210377 1.49089e-015 -1.86361e-015 -3.18055e-015 2.48481e-017 -1.56543e-015 -9.54166e-015 -1.73937e-016 -1.56543e-015 -6.36111e-015 6.95746e-016 -1.54058e-015 -3.18055e-015 -1.16786e-015 -2.80783e-015 -9.54166e-015 -1.36664e-015 -1.3418e-015 -6.36111e-015 2.48481e-017 -1.56543e-015 -6.36111e-015 -1.16786e-015 -2.80783e-015 -9.54166e-015 -1.36664e-015 -1.3418e-015 -6.36111e-015 2.48481e-017 -1.56543e-015 -6.36111e-015 6.95746e-016 -1.54058e-015 -3.18055e-015 -1.16786e-015 -2.80783e-015 -9.54166e-015 -1.36664e-015 -1.3418e-015 -6.36111e-015 2.48481e-017 -1.56543e-015 -6.36111e-015 -1.16786e-015 -2.80783e-015 -9.54166e-015 -1.36664e-015 -1.3418e-015 -6.36111e-015 2.48481e-017 -1.56543e-015 -6.36111e-015 7.73693 7.67977 31.8848 45.9551 -3.95438 -30.7422 23.2135 25.5917 60.4318 -30.8781 -33.1723 -0.382715 -7.95139e-016 -3.97569e-016 9.54166e-015 -7.95139e-016 -3.97569e-016 6.36111e-015 3.97569e-016 -1.98785e-015 9.54166e-015 -0 0 6.36111e-015 1.19271e-015 -7.95139e-016 1.59028e-014 -3.97569e-016 -7.95139e-016 1.27222e-014 8.82781e-032 -7.95139e-016 6.36111e-015 1.19271e-015 -7.95139e-016 1.59028e-014 -3.97569e-016 -7.95139e-016 1.27222e-014 8.82781e-032 -7.95139e-016 6.36111e-015 -0 0 6.36111e-015 1.19271e-015 -7.95139e-016 1.59028e-014 -3.97569e-016 -7.95139e-016 1.27222e-014 8.82781e-032 -7.95139e-016 6.36111e-015 1.19271e-015 -7.95139e-016 1.59028e-014 -3.97569e-016 -7.95139e-016 1.27222e-014 8.82781e-032 -7.95139e-016 6.36111e-015 10.018 -34.4618 19.77 159.873 81.8848 -155.285 -23.6591 55.8948 32.1601 -9.91576 -34.0009 -19.72 -159.307 82.012 154.741 23.9022 56.0094 -32.2791 
